<svg version="1.1" id="Layer_1" xmlns="http://www.w3.org/2000/svg" xmlns:xlink="http://www.w3.org/1999/xlink" x="0px" y="0px"
     width="141.667px" height="126.334px" viewBox="0 0 141.667 126.334" enable-background="new 0 0 141.667 126.334"
     xml:space="preserve">
<g>
    <g>
        <path class="path" fill="red" stroke="#000" stroke-width="13" stroke-miterlimit="10" d="M126.274,15.18l-0.091-0.091
            c-13.42-13.42-35.517-13.08-49.354,0.756l-6.158,6.158l-6.159-6.159C50.677,2.006,28.579,1.669,15.158,15.088l-0.091,0.092
            C1.646,28.6,1.985,50.698,15.822,64.536l29.793,29.793c0.006,0.006,0.013,0.012,0.019,0.019l0.639,0.639
            c0.002,0.003,0.005,0.005,0.007,0.008l0.091,0.091c0.002,0.003,0.005,0.005,0.008,0.008l24.291,24.291l24.278-24.278
            c0.008-0.008,0.016-0.015,0.023-0.022l0.073-0.074l0.667-0.667c0.005-0.005,0.01-0.01,0.015-0.015l29.791-29.791
            C139.356,50.698,139.694,28.6,126.274,15.18z"/>
    </g>
</g>
</svg>